<?xml version="1.0" standalone="no"?><!DOCTYPE svg PUBLIC "-//W3C//DTD SVG 1.1//EN" "http://www.w3.org/Graphics/SVG/1.1/DTD/svg11.dtd"><svg t="1531803562402" class="icon" style="" viewBox="0 0 1029 1024" version="1.1" xmlns="http://www.w3.org/2000/svg" p-id="4469" xmlns:xlink="http://www.w3.org/1999/xlink" width="200.9765625" height="200"><defs><style type="text/css"></style></defs><path d="M514.949641 509.038368m-509.038368 0a509.038368 509.038368 0 1 0 1018.076737 0 509.038368 509.038368 0 1 0-1018.076737 0Z" fill="#FFFFFF" p-id="4470"></path><path d="M818.799271 386.036188H614.165847a9.255243 9.255243 0 0 0-11.291397 6.941432 9.255243 9.255243 0 0 0 0 4.442517v222.125834c0 11.291397 2.869125 12.772235 12.772236 12.772235h199.265383a13.605207 13.605207 0 0 0 16.844542-9.255243 13.32755 13.32755 0 0 0 0-7.126537V398.715871c-1.203182-11.383949-4.072307-12.679683-12.95734-12.679683z m-18.510486 84.870579h-5.275489c-19.898773 0-18.510486-2.776573-18.510486 18.510486V583.080313c0 25.451918-8.514824 35.355029-34.059294 38.131601q-19.991325 1.018077-39.98265 0a7.589299 7.589299 0 0 1-8.514824-6.571222 6.201013 6.201013 0 0 1 0-1.851049v-2.961678c0-22.582793 0-22.582793 21.287059-22.582793s25.729576-4.164859 25.729576-25.54447V490.527882a361.417242 361.417242 0 0 1-113.191623 103.381065v-38.131601a13.790312 13.790312 0 0 1 9.995663-11.383949 255.352156 255.352156 0 0 0 74.041944-72.005791h-84.037607c-10.088215 0-14.253074-1.480839-14.253074-12.772235 1.480839-22.675346 0-22.675346 22.767898-22.675346h93.940717c9.995663 0 12.772235-2.869125 11.291396-11.291397v-9.810557c0-19.713668-4.164859-18.510486 18.510487-18.510486 12.772235 0 17.1222 2.869125 16.196675 16.104123a65.527121 65.527121 0 0 0 0 17.029647 7.033985 7.033985 0 0 0 5.275488 8.514824 6.386118 6.386118 0 0 0 3.239336 0 66.26754 66.26754 0 0 0 17.122199 0c16.196675-2.776573 17.1222 4.164859 17.1222 16.196675s-3.979755 18.510486-18.510486 15.641361zM327.808626 527.548855h9.255244a29.246568 29.246568 0 0 0-9.255244 0zM511.710306 0a512.000046 512.000046 0 1 0 0.647867 0zM470.524475 675.632744a196.673915 196.673915 0 0 1-143.826478-74.041945c-39.890098 55.531458-98.290681 66.452645-159.375285 74.967469-8.514824 1.480839-11.291397-1.388286-9.995663-9.810558a50.903837 50.903837 0 0 1 1.480839-25.544471c4.164859-7.126537 14.160522-2.776573 22.767898-4.164859a349.015216 349.015216 0 0 0 65.434569-18.510486 98.660891 98.660891 0 0 0 41.185831-34.522057H170.099285a8.422271 8.422271 0 0 1-9.995663-6.47867 11.013739 11.013739 0 0 1 0-3.887202c-1.388286-25.451918-1.388286-25.451918 24.248737-25.451918h104.028932c9.995663 0 16.196675-1.480839 16.196675-12.772236a7.21909 7.21909 0 0 1 4.812727-8.607376H172.505648a14.253074 14.253074 0 0 1-14.345627-14.067969 13.882865 13.882865 0 0 1 0-2.036154c1.388286-22.675346-2.961678-19.713668 19.898773-19.713667h113.09907c8.514824 0 14.160522 1.388286 14.160522-11.383949s-5.645698-11.291397-16.104123-11.291397h-95.329004c-10.088215 0-14.253074-2.869125-12.772235-12.772235v-10.180768c-1.480839-8.422271 1.388286-12.772235 11.291396-11.291396h98.290682c8.514824 0 12.679683 0 12.679683-11.291397a9.255243 9.255243 0 0 0-6.663775-11.661606 9.255243 9.255243 0 0 0-6.015908 0H183.056625c-21.379611 0-17.1222 2.776573-18.510486-18.510486-1.480839-11.291397 2.869125-16.104123 16.104123-13.975417 21.379611 1.388286 42.666671 0 66.915407 0a160.763572 160.763572 0 0 1-22.767898-39.612441h34.151847a7.496747 7.496747 0 0 1 7.033985 4.16486 19.43601 19.43601 0 0 1 2.961678 5.645698c12.772235 19.898773 26.932757 35.447581 54.143172 29.801883H329.84478a44.425167 44.425167 0 0 0 51.181494-26.840205A21.194507 21.194507 0 0 1 403.886724 339.389763a133.553157 133.553157 0 0 0 22.767898 0A122.169208 122.169208 0 0 1 403.886724 379.464966h68.396247a10.27332 10.27332 0 0 1 12.679683 7.126537 9.810558 9.810558 0 0 1 0 5.645698c0 19.528563 0 19.528563-21.472164 19.528563H355.111594c-9.995663 0-11.291397 2.961678-11.291397 12.772235a9.255243 9.255243 0 0 0 6.941432 11.383949 11.476501 11.476501 0 0 0 4.349965 0h98.290681c9.995663 0 16.104123 2.68402 12.772235 12.772236v5.645698c2.869125 14.160522-4.257412 16.104123-16.196675 16.104123-29.894435-1.388286-59.78887 0-89.683305 0-7.126537 0-17.1222-4.164859-17.1222 11.291396s8.607376 11.383949 17.1222 11.383949H477.003145c9.995663 0 14.160522 1.388286 14.160522 12.772236-1.388286 21.101954 0 21.101954-21.287059 21.101954h-132.349976c5.182936 1.203182 8.237166 4.905279 6.293565 14.253074s7.126537 7.126537 11.291397 7.126538h119.57774c11.291397 0 17.1222 2.869125 14.253074 14.253074v9.810557c1.480839 8.422271-2.961678 11.291397-11.291396 11.291397H358.073271c22.767898 32.300798 55.531458 42.481566 89.683306 50.903837a281.081732 281.081732 0 0 0 34.059294 5.645698 9.810558 9.810558 0 0 1 11.291397 8.144614 9.255243 9.255243 0 0 1 0 3.239335c1.480839 25.359366 1.480839 26.747652-22.582793 24.063632z m396.679717-31.190169c0 21.101954-5.645698 26.840205-26.932757 26.840204H578.625714c-11.291397 0-12.772235-2.961678-12.772236-12.772235V363.6385c0-9.90311 1.480839-14.067969 12.772236-14.067969H854.617062c11.291397 0 12.772235 4.164859 12.772235 14.160521v281.081732z" fill="#07C4BD" p-id="4471"></path></svg>